<svg xmlns="http://www.w3.org/2000/svg" version="1.1" xmlns:xlink="http://www.w3.org/1999/xlink" xmlns:svgjs="http://svgjs.dev/svgjs" width="1440" height="560" preserveAspectRatio="none" viewBox="0 0 1440 560"><g mask="url(&quot;#SvgjsMask9894&quot;)" fill="none"><use xlink:href="#SvgjsG9902" transform="translate(0, 0)" fill="rgba(191, 158, 132, 1)"></use><use xlink:href="#SvgjsG9902" transform="translate(1290, 0)" fill="rgba(191, 158, 132, 1)"></use></g><defs><mask id="SvgjsMask9894"><rect width="1440" height="560" fill="#ffffff"></rect></mask><g id="SvgjsG9900"><path d="M7.713 15.485C3.459 15.485 0 12.025 0 7.768 0 3.513 3.459 0.051 7.713 0.051S15.432 3.513 15.432 7.768c0 4.257-3.465 7.716-7.719 7.717z m0-1.91c3.201 0 5.81-2.604 5.81-5.809 0-3.199-2.61-5.807-5.81-5.807-3.202 0-5.804 2.609-5.804 5.807-0.001 3.206 2.602 5.809 5.804 5.809z"></path><path d="M7.753 8.787a0.574 0.574 0 0 1-0.554-0.042 0.578 0.578 0 0 1-0.259-0.399L6.931 3.862a0.58 0.58 0 0 1 1.162 0v3.478l2.975-1.4a0.578 0.578 0 0 1 0.773 0.275c0.138 0.292 0.011 0.637-0.276 0.774l-3.81 1.798z"></path></g><g id="SvgjsG9895"><path d="M2.524 8.637H0.014V7.308h2.51v1.329zM3.656 4.576L1.884 2.804l0.935-0.935 1.772 1.772-0.935 0.935z m0 6.817l0.935 0.935-1.772 1.773-0.934-0.936 1.771-1.772z m4.997-8.884h-1.33V-0.002h1.33v2.511z m-1.33 10.952h1.33v2.51h-1.33v-2.509zM12.344 4.576l-0.96-0.935 1.796-1.772 0.935 0.935-1.772 1.772z m0 6.792l1.771 1.797-0.935 0.936-1.771-1.774 0.936-0.96z m3.643-4.06v1.329h-2.51V7.308h2.509z"></path><path d="M3.702 7.984a4.184 4.184 0 1 0 8.368 0 4.184 4.184 0 1 0-8.368 0"></path></g><g id="SvgjsG9901"><path d="M7.45 12.652S6.4 11.121 3.725 11.121C1.274 11.121 0 11.833 0 11.833V1.937s1.274-0.712 3.725-0.729C6.4 1.19 7.45 2.756 7.45 2.756V12.652z m1.087 0s1.05-1.531 3.725-1.531c2.451 0 3.725 0.712 3.725 0.713V1.937s-1.274-0.712-3.725-0.729c-2.675-0.017-3.725 1.548-3.725 1.548v9.896z"></path><path d="M8.012 15.733S6.4 13.411 3.725 13.411c-2.451 0-3.725 0.712-3.725 0.712v-1.186s1.274-0.712 3.725-0.729c2.675-0.018 4.287 2.34 4.287 2.34V15.733z m0 0s1.612-2.323 4.287-2.323c2.451 0 3.725 0.712 3.725 0.712v-1.185s-1.274-0.712-3.725-0.729c-2.675-0.019-4.287 2.339-4.287 2.339v1.185z"></path></g><g id="SvgjsG9898"><path d="M15.065 12.151H0.02c0 1.333 1.015 1.95 1.83 1.95h11.386c0.975 0 1.83-0.767 1.829-1.951zM12.853 2.166H1.869v7.208c0 0.976 0.843 1.75 1.755 1.75h7.121c1.031 0 1.731-0.863 1.731-1.749V8.773c2.031 0 3.505-1.527 3.505-3.303 0-1.815-1.445-3.303-3.126-3.303z m1.832 3.305c0 1.036-0.763 2.025-2.21 1.931V3.519l0.378 0 0 0.001c1.391 0 1.837 1.318 1.832 1.952v-0.001z"></path></g><g id="SvgjsG9897"><path d="M9.412 5.113c1.273 0 2.378 0.701 2.988 1.734l3.596 0.004v-1.949c0-0.725-0.584-1.314-1.299-1.314H1.295C0.578 3.588 0 4.176 0 4.902l0.004 1.932 6.418 0.005c0.614-1.029 1.715-1.725 2.99-1.725M3.361 2.97h-1.192l-0.138 0.434h1.429l-0.099-0.434zM14.11 2.738h-1.587L12.242 3.408H14.368l-0.258-0.67zM8.662 3.177h-1.366V2.508h1.366v0.669zM9.914 2.24h-3.857l-0.795 1.176h5.38L9.914 2.24z m2.672 4.955c0.199 0.443 0.316 0.93 0.316 1.449 0 1.949-1.563 3.531-3.49 3.531-1.93 0-3.493-1.582-3.493-3.531 0-0.519 0.116-1.006 0.316-1.451H0V12.514c0 0.721 0.577 1.309 1.295 1.309h13.401c0.716 0 1.299-0.588 1.3-1.309L16 7.195H12.586z"></path><path d="M11.315 7.484a1.717 1.717 0 0 0-0.199-0.278c-0.408-0.496-1.018-0.822-1.704-0.823-0.69 0-1.299 0.324-1.707 0.818-0.075 0.09-0.144 0.182-0.203 0.283-0.205 0.34-0.33 0.734-0.329 1.16 0 1.246 1.002 2.258 2.237 2.258 1.23 0 2.232-1.013 2.232-2.259 0-0.427-0.122-0.819-0.329-1.16"></path></g><g id="SvgjsG9896"><path d="M3.044 12.188V8.93c0-2.836 2.475-5.244 5.463-5.245 3.022-0.004 5.465 2.352 5.465 5.245v3.258h1.351V8.93C15.332 5.276 12.27 2.325 8.51 2.325 4.777 2.325 1.689 5.333 1.689 8.93v3.258h1.355z"></path><path d="M5.463 14.702l-1.781 0.006V9.593h1.785c0.921 2.372 0 5.111 0 5.111m6.049-5.109H13.298V14.702l-1.783 0.006c-0.921-2.373 0-5.113 0-5.113"></path></g><g id="SvgjsG9899"><path d="M8 14.66l5.904-5.908c1.836-1.836 1.8-4.512 0.132-6.174A4.268 4.268 0 0 0 8 2.58a4.264 4.264 0 0 0-6.03-0.02C0.3 4.24 0.26 6.92 2.1 8.744L8 14.66z"></path></g><g id="SvgjsG9902"><use xlink:href="#SvgjsG9895" transform="translate(0, 0) scale(3)" fill="rgba(191, 158, 132, 1)"></use><use xlink:href="#SvgjsG9895" transform="translate(0, 129) scale(3)" fill="rgba(191, 158, 132, 1)"></use><use xlink:href="#SvgjsG9896" transform="translate(0, 258) scale(3)" fill="rgba(191, 158, 132, 1)"></use><use xlink:href="#SvgjsG9897" transform="translate(0, 387) scale(3)" fill="rgba(191, 158, 132, 1)"></use><use xlink:href="#SvgjsG9898" transform="translate(0, 516) scale(3)" fill="rgba(191, 158, 132, 1)"></use><use xlink:href="#SvgjsG9898" transform="translate(129, 0) scale(3)" fill="rgba(191, 158, 132, 1)"></use><use xlink:href="#SvgjsG9898" transform="translate(129, 129) scale(3)" fill="rgba(191, 158, 132, 1)"></use><use xlink:href="#SvgjsG9896" transform="translate(129, 258) scale(3)" fill="rgba(191, 158, 132, 1)"></use><use xlink:href="#SvgjsG9898" transform="translate(129, 387) scale(3)" fill="rgba(191, 158, 132, 1)"></use><use xlink:href="#SvgjsG9897" transform="translate(129, 516) scale(3)" fill="rgba(191, 158, 132, 1)"></use><use xlink:href="#SvgjsG9899" transform="translate(258, 0) scale(3)" fill="rgba(191, 158, 132, 1)"></use><use xlink:href="#SvgjsG9900" transform="translate(258, 129) scale(3)" fill="rgba(191, 158, 132, 1)"></use><use xlink:href="#SvgjsG9897" transform="translate(258, 258) scale(3)" fill="rgba(191, 158, 132, 1)"></use><use xlink:href="#SvgjsG9897" transform="translate(258, 387) scale(3)" fill="rgba(191, 158, 132, 1)"></use><use xlink:href="#SvgjsG9899" transform="translate(258, 516) scale(3)" fill="rgba(191, 158, 132, 1)"></use><use xlink:href="#SvgjsG9896" transform="translate(387, 0) scale(3)" fill="rgba(191, 158, 132, 1)"></use><use xlink:href="#SvgjsG9895" transform="translate(387, 129) scale(3)" fill="rgba(191, 158, 132, 1)"></use><use xlink:href="#SvgjsG9897" transform="translate(387, 258) scale(3)" fill="rgba(191, 158, 132, 1)"></use><use xlink:href="#SvgjsG9895" transform="translate(387, 387) scale(3)" fill="rgba(191, 158, 132, 1)"></use><use xlink:href="#SvgjsG9896" transform="translate(387, 516) scale(3)" fill="rgba(191, 158, 132, 1)"></use><use xlink:href="#SvgjsG9899" transform="translate(516, 0) scale(3)" fill="rgba(191, 158, 132, 1)"></use><use xlink:href="#SvgjsG9897" transform="translate(516, 129) scale(3)" fill="rgba(191, 158, 132, 1)"></use><use xlink:href="#SvgjsG9899" transform="translate(516, 258) scale(3)" fill="rgba(191, 158, 132, 1)"></use><use xlink:href="#SvgjsG9896" transform="translate(516, 387) scale(3)" fill="rgba(191, 158, 132, 1)"></use><use xlink:href="#SvgjsG9898" transform="translate(516, 516) scale(3)" fill="rgba(191, 158, 132, 1)"></use><use xlink:href="#SvgjsG9897" transform="translate(645, 0) scale(3)" fill="rgba(191, 158, 132, 1)"></use><use xlink:href="#SvgjsG9897" transform="translate(645, 129) scale(3)" fill="rgba(191, 158, 132, 1)"></use><use xlink:href="#SvgjsG9898" transform="translate(645, 258) scale(3)" fill="rgba(191, 158, 132, 1)"></use><use xlink:href="#SvgjsG9900" transform="translate(645, 387) scale(3)" fill="rgba(191, 158, 132, 1)"></use><use xlink:href="#SvgjsG9899" transform="translate(645, 516) scale(3)" fill="rgba(191, 158, 132, 1)"></use><use xlink:href="#SvgjsG9895" transform="translate(774, 0) scale(3)" fill="rgba(191, 158, 132, 1)"></use><use xlink:href="#SvgjsG9897" transform="translate(774, 129) scale(3)" fill="rgba(191, 158, 132, 1)"></use><use xlink:href="#SvgjsG9898" transform="translate(774, 258) scale(3)" fill="rgba(191, 158, 132, 1)"></use><use xlink:href="#SvgjsG9896" transform="translate(774, 387) scale(3)" fill="rgba(191, 158, 132, 1)"></use><use xlink:href="#SvgjsG9899" transform="translate(774, 516) scale(3)" fill="rgba(191, 158, 132, 1)"></use><use xlink:href="#SvgjsG9897" transform="translate(903, 0) scale(3)" fill="rgba(191, 158, 132, 1)"></use><use xlink:href="#SvgjsG9899" transform="translate(903, 129) scale(3)" fill="rgba(191, 158, 132, 1)"></use><use xlink:href="#SvgjsG9899" transform="translate(903, 258) scale(3)" fill="rgba(191, 158, 132, 1)"></use><use xlink:href="#SvgjsG9897" transform="translate(903, 387) scale(3)" fill="rgba(191, 158, 132, 1)"></use><use xlink:href="#SvgjsG9897" transform="translate(903, 516) scale(3)" fill="rgba(191, 158, 132, 1)"></use><use xlink:href="#SvgjsG9899" transform="translate(1032, 0) scale(3)" fill="rgba(191, 158, 132, 1)"></use><use xlink:href="#SvgjsG9900" transform="translate(1032, 129) scale(3)" fill="rgba(191, 158, 132, 1)"></use><use xlink:href="#SvgjsG9895" transform="translate(1032, 258) scale(3)" fill="rgba(191, 158, 132, 1)"></use><use xlink:href="#SvgjsG9899" transform="translate(1032, 387) scale(3)" fill="rgba(191, 158, 132, 1)"></use><use xlink:href="#SvgjsG9900" transform="translate(1032, 516) scale(3)" fill="rgba(191, 158, 132, 1)"></use><use xlink:href="#SvgjsG9900" transform="translate(1161, 0) scale(3)" fill="rgba(191, 158, 132, 1)"></use><use xlink:href="#SvgjsG9896" transform="translate(1161, 129) scale(3)" fill="rgba(191, 158, 132, 1)"></use><use xlink:href="#SvgjsG9901" transform="translate(1161, 258) scale(3)" fill="rgba(191, 158, 132, 1)"></use><use xlink:href="#SvgjsG9900" transform="translate(1161, 387) scale(3)" fill="rgba(191, 158, 132, 1)"></use><use xlink:href="#SvgjsG9897" transform="translate(1161, 516) scale(3)" fill="rgba(191, 158, 132, 1)"></use></g></defs></svg>